<svg xmlns="http://www.w3.org/2000/svg" viewBox="0 0 32 32">
  <rect x=".75" y=".75" width="30.5" height="30.5" rx="5.5" fill="#F8FAFB" stroke="#172A3D" stroke-width="1.5"/>

  <path d="M7 7.5v17.5h18.5" fill="none" stroke="#3C73A9" stroke-width="1.25" stroke-linecap="round" opacity=".58"/>
  <path d="M7 23c3.6-4.9 4.1-11.1 10.1-12.1 4.8-.8 6.4 3.6 8.1-2.7" fill="none" stroke="#28649F" stroke-width="1.65" stroke-linecap="round" stroke-linejoin="round"/>

  <path d="M12.7 16.5c0-3.5 1.8-6 4.7-6 2.9 0 4.8 2 4.8 4.8 0 3-1.8 5.1-4.8 5.3-2.9.2-4.7-1.5-4.7-4.1Z" fill="#F47460" stroke="#E24852" stroke-width=".8"/>

  <circle cx="7" cy="23" r="3" fill="#EDF1F4" stroke="#28649F" stroke-width="1.25"/>
  <path d="M5.5 23h3" stroke="#172A3D" stroke-width="1.35" stroke-linecap="round"/>

  <circle cx="25.2" cy="8.2" r="3" fill="#EDF1F4" stroke="#28649F" stroke-width="1.25"/>
  <path d="M23.7 8.2h3m-1.5-1.5v3" stroke="#172A3D" stroke-width="1.35" stroke-linecap="round"/>
</svg>
